<svg version="1.1" viewBox="0.0 0.0 767.5905511811023 768.4750656167979" fill="none" stroke="none" stroke-linecap="square" stroke-miterlimit="10" xmlns:xlink="http://www.w3.org/1999/xlink" xmlns="http://www.w3.org/2000/svg"><clipPath id="p.0"><path d="m0 0l767.5906 0l0 768.47504l-767.5906 0l0 -768.47504z" clip-rule="nonzero"/></clipPath><g clip-path="url(#p.0)"><path fill="#000000" fill-opacity="0.0" d="m0 0l767.5906 0l0 768.47504l-767.5906 0z" fill-rule="evenodd"/><path fill="#980000" d="m0 128.00256l0 0c0 -70.69386 57.308697 -128.00256 128.00256 -128.00256l511.99487 0l0 0c33.948364 0 66.50635 13.485946 90.511475 37.49108c24.005127 24.005138 37.49109 56.563087 37.49109 90.51148l0 511.99487c0 70.69385 -57.308716 128.00256 -128.00256 128.00256l-511.99487 0c-70.69386 0 -128.00256 -57.308716 -128.00256 -128.00256z" fill-rule="evenodd"/><path fill="#000000" fill-opacity="0.0" d="m47.795277 160.23846l0 0c0 -61.857132 50.145107 -112.00224 112.00224 -112.00224l447.9955 0l0 0c29.704834 0 58.193054 11.800201 79.19757 32.804695c21.004456 21.004494 32.804688 49.4927 32.804688 79.19755l0 447.99554c0 61.857117 -50.14514 112.0022 -112.00226 112.0022l-447.9955 0c-61.857132 0 -112.00224 -50.14508 -112.00224 -112.0022z" fill-rule="evenodd"/><path stroke="#c65252" stroke-width="3.0" stroke-linejoin="round" stroke-linecap="butt" d="m47.795277 160.23846l0 0c0 -61.857132 50.145107 -112.00224 112.00224 -112.00224l447.9955 0l0 0c29.704834 0 58.193054 11.800201 79.19757 32.804695c21.004456 21.004494 32.804688 49.4927 32.804688 79.19755l0 447.99554c0 61.857117 -50.14514 112.0022 -112.00226 112.0022l-447.9955 0c-61.857132 0 -112.00224 -50.14508 -112.00224 -112.0022z" fill-rule="evenodd"/><path fill="#000000" fill-opacity="0.0" d="m0 124.062996l768.0 0l0 471.87402l-768.0 0z" fill-rule="evenodd"/><path fill="#ffffff" d="m380.07843 491.46298l0 -212.79688l-0.75 0l-76.90625 212.79688l-37.328125 0l-76.53125 -212.79688l-0.75 0l0 212.79688l-35.46875 0l0 -261.32812l52.640625 0l78.40625 218.01562l0.75 0l78.765625 -218.01562l52.640625 0l0 261.32812l-35.46875 0zm239.3017 -85.859375l0 60.84375l-43.296875 25.015625l-97.078125 0l0 -32.484375l104.171875 0l0 -45.921875l-60.859375 0l-43.3125 -25.0l0 -58.25l43.3125 -25.015625l93.328125 0l0 32.484375l-100.421875 0l0 43.3125l60.859375 0l43.296875 25.015625z" fill-rule="nonzero"/></g></svg>